<svg xmlns="http://www.w3.org/2000/svg" xmlns:xlink="http://www.w3.org/1999/xlink" viewBox="0 0 1000 1000"><defs><style>.cls-1{fill:url(#linear-gradient);}.cls-2{fill:#fff;}</style><linearGradient id="linear-gradient" x1="847.57" y1="847.57" x2="154.06" y2="154.06" gradientUnits="userSpaceOnUse"><stop offset="0" stop-color="#ff0034"/><stop offset="1" stop-color="#ff9274"/></linearGradient></defs><title>bughunter</title><g id="Layer_2" data-name="Layer 2"><g id="Layer_1-2" data-name="Layer 1"><circle class="cls-1" cx="500" cy="500" r="500"/><path class="cls-2" d="M398.44,443.33H184.38v148H398.44a296.41,296.41,0,0,0,195.94-74h0A296.41,296.41,0,0,0,398.44,443.33Z"/><path class="cls-2" d="M815.62,430.55H766.83a104,104,0,0,0-31.6-34l28.3-28.3-24.48-24.48-37.67,37.68a104.27,104.27,0,0,0-24.66-2.95,101.65,101.65,0,0,0-24.48,2.95l-37.85-37.68-24.48,24.48L618,396.52a105.4,105.4,0,0,0-31.43,34H537.83v34.73h36.28l29.28,52.05-29.28,52.12H562.28l24.78-35.12-70,60.67,9.33,25.33,11.44-16.21v0h48.78a104,104,0,0,0,180.22,0h48.79V569.45H779.33a115,115,0,0,0,1.56-17.36V534.72h34.73V500H780.89V482.64a115,115,0,0,0-1.56-17.36h36.29Z"/><polygon class="cls-2" points="586.05 505 551.72 477 568.89 472.33 586.05 505"/></g></g></svg>